#extradata 0:        2, 0x0030001c
#tb 0: 1/1000
#media_type 0: audio
#codec_id 0: aac
#sample_rate 0: 16000
#channel_layout_name 0: mono
0,       -132,       -132,       64,      156, 0x867d4f3a, S=1, Skip Samples,       10, 0x02c80048
0,        -68,        -68,       64,      201, 0x62745ff9
0,         -4,         -4,       64,      137, 0x90c639e0, S=1, Skip Samples,       10, 0x048a00c2
